<?xml version="1.0" encoding="UTF-8" standalone="no"?>
<!DOCTYPE svg PUBLIC "-//W3C//DTD SVG 1.1//EN" "http://www.w3.org/Graphics/SVG/1.1/DTD/svg11.dtd">
<svg width="100%" height="100%" viewBox="0 0 23 29" version="1.1" xmlns="http://www.w3.org/2000/svg" xmlns:xlink="http://www.w3.org/1999/xlink" xml:space="preserve" xmlns:serif="http://www.serif.com/" style="fill-rule:evenodd;clip-rule:evenodd;stroke-linejoin:round;stroke-miterlimit:2;">
    <g transform="matrix(1,0,0,1,-0.000132366,2.84217e-14)">
        <g transform="matrix(1,0,0,1,-217.724,-305.191)">
            <g transform="matrix(1,0,0,1,211.893,297.173)">
                <path d="M13.142,36.168C11.335,35.37 10.107,33.65 9.946,31.681C10.052,29.655 11.122,27.804 12.821,26.699C12.542,27.379 12.61,28.154 12.997,28.776C13.438,29.392 14.197,29.688 14.939,29.534C15.997,29.236 16.617,28.138 16.319,27.079C16.214,26.709 16.002,26.373 15.714,26.119C14.517,25.146 13.916,23.617 14.13,22.088C14.335,21.278 14.783,20.546 15.416,19.994C14.94,21.261 16.281,22.511 17.18,23.126C18.776,24.084 20.313,25.136 21.784,26.278C23.392,27.545 24.268,29.528 24.131,31.558C23.769,33.717 22.242,35.5 20.16,36.169C24.325,35.242 28.619,31.933 28.701,27.24C28.619,23.485 26.378,20.116 22.952,18.581L22.8,18.581C22.875,18.765 22.912,18.963 22.905,19.163C22.917,19.034 22.917,18.905 22.905,18.776C22.924,18.928 22.924,19.081 22.905,19.233C22.645,20.301 21.568,20.958 20.498,20.698C20.07,20.592 19.688,20.352 19.413,20.005C18.041,18.245 19.413,16.242 19.643,14.306C19.784,11.831 18.653,9.464 16.647,8.018C17.651,9.691 16.313,11.89 15.341,13.14C14.367,14.391 12.959,15.323 11.811,16.414C10.575,17.564 9.441,18.828 8.424,20.18C6.225,22.867 5.362,26.411 6.077,29.807C7.058,33.081 9.779,35.541 13.135,36.179L13.153,36.179L13.142,36.168Z" style="fill:white;fill-rule:nonzero;"/>
            </g>
        </g>
    </g>
</svg>
